<svg xmlns="http://www.w3.org/2000/svg" viewBox="0 0 1268.97 1224.3"><title>Resurs 1</title><g id="Lager_2" data-name="Lager 2"><g id="Lager_1-2" data-name="Lager 1"><path d="M343.44,74.66l90.22,152.8a416.16,416.16,0,0,1,235-48.75A407,407,0,0,1,869.51,252.2l115-136.07c-84.4-62.57-187-104-299.78-113.51C561.72-9,443.85,18.63,343.44,74.66Z"/><path d="M218.29,590.54C216.1,757.89,315.06,907.06,462,973.27l-77.86,159.35C177.54,1036.57,38.56,827,40.75,589.81H0C0,940.53,284.5,1224.3,634.49,1224.3,985.2,1224.3,1269,939.8,1269,589.81H218.29Zm360.9,592.28A589.09,589.09,0,0,1,439.48,1153l64.76-165.17A413.45,413.45,0,0,0,594.47,1006c105.5,9.46,205.19-21.83,284.5-80l136.79,117.15C898.61,1143.53,743.63,1197.38,579.19,1182.82Z"/></g></g></svg>