<svg xmlns="http://www.w3.org/2000/svg" viewBox="0 0 188.94 224.75"><defs><style>.cls-1{fill:none;stroke:#000;stroke-miterlimit:10;stroke-width:5.92px;}</style></defs><title>Resurs 2</title><g id="Lager_2" data-name="Lager 2"><g id="Lager_1-2" data-name="Lager 1"><path class="cls-1" d="M49,27.91V17A14,14,0,0,1,63,3H172a14,14,0,0,1,14,14v168.8a14,14,0,0,1-14,14H137"/><path d="M123,33.83a8.1,8.1,0,0,1,8.1,8.1v168.8a8.11,8.11,0,0,1-8.1,8.11H14a8.11,8.11,0,0,1-8.1-8.11V41.93a8.1,8.1,0,0,1,8.1-8.1H123m0-5.92H14a14,14,0,0,0-14,14v168.8a14,14,0,0,0,14,14H123a14,14,0,0,0,14-14V41.93a14,14,0,0,0-14-14Z"/></g></g></svg>